<svg width="153" height="115" viewBox="0 0 153 115" fill="none" xmlns="http://www.w3.org/2000/svg">
<path d="M150.5 49C150.5 64 119.421 64 78 64C36.5786 64 0.5 64 0.5 49C0.5 30.4985 35.0786 0 76.5 0C117.921 0 150.5 34 150.5 49Z" fill="#D9D9D9"/>
<path d="M150 104.587C150 116.82 116.421 114.889 75 114.889C33.5786 114.889 0 116.82 0 104.587C0 92.3539 33.5786 95.3151 75 95.3151C116.421 95.3151 150 92.3539 150 104.587Z" fill="#D9D9D9"/>
<path d="M1.03718 74.0772C49.5409 54.0763 101.541 94.076 151.037 73.0772" stroke="#D9D9D9" stroke-width="5"/>
<path d="M150 86.5C150 88.9853 116.421 91 75 91C33.5786 91 0 88.9853 0 86.5C0 84.0147 33.5786 82 75 82C116.421 82 150 84.0147 150 86.5Z" fill="#D9D9D9"/>
</svg>
